<svg width="32" height="33" viewBox="0 0 32 33" fill="none" xmlns="http://www.w3.org/2000/svg">
<path d="M21 11.5V21.5H27V5.5H11V11.5H21Z" fill="black" fill-opacity="0.1"/>
<path d="M10 5.5V11.5C10 12.0523 10.4477 12.5 11 12.5C11.5523 12.5 12 12.0523 12 11.5V6.5H26V20.5H21C20.4477 20.5 20 20.9477 20 21.5C20 22.0523 20.4477 22.5 21 22.5H27C27.5523 22.5 28 22.0523 28 21.5V5.5C28 4.94772 27.5523 4.5 27 4.5H11C10.4477 4.5 10 4.94772 10 5.5Z" fill="#1C1C1C"/>
<path fill-rule="evenodd" clip-rule="evenodd" d="M4 27.5V11.5C4 10.9477 4.44772 10.5 5 10.5H21C21.5523 10.5 22 10.9477 22 11.5V27.5C22 28.0523 21.5523 28.5 21 28.5H5C4.44772 28.5 4 28.0523 4 27.5ZM20 26.5H6V12.5H20V26.5Z" fill="#1C1C1C"/>
</svg>
