<svg xmlns="http://www.w3.org/2000/svg" width="43" height="42" fill="none"><g clip-path="url(#a)"><path fill="#26A17B" d="M.51 0h40v40h-40z"/><path fill="#fff" fill-rule="evenodd" d="M22.912 21.729v-.003c-.137.01-.846.053-2.427.053a52.39 52.39 0 0 1-2.464-.053v.004c-4.86-.214-8.488-1.06-8.488-2.072s3.628-1.858 8.488-2.075v3.305c.317.022 1.227.076 2.485.076 1.509 0 2.265-.063 2.406-.075v-3.304c4.85.216 8.469 1.063 8.469 2.073 0 1.012-3.619 1.856-8.469 2.07Zm0-4.488v-2.957h6.768v-4.51H11.254v4.51h6.767v2.956c-5.5.253-9.636 1.343-9.636 2.648 0 1.305 4.136 2.393 9.636 2.647v9.478h4.891v-9.48c5.492-.253 9.618-1.342 9.618-2.645 0-1.304-4.127-2.393-9.618-2.647" clip-rule="evenodd"/></g><rect width="20" height="20" x="22.51" y="22" fill="#fff" rx="10"/><g clip-path="url(#b)"><path fill="#627EEA" d="M24.51 24h16v16h-16z"/><path fill="#fff" fill-opacity=".602" d="M32.759 26v4.435l3.748 1.675L32.76 26Z"/><path fill="#fff" d="m32.759 26-3.75 6.11 3.75-1.675V26Z"/><path fill="#fff" fill-opacity=".602" d="M32.759 34.984v3.014l3.75-5.19-3.75 2.176Z"/><path fill="#fff" d="M32.759 37.998v-3.014l-3.75-2.176 3.75 5.19Z"/><path fill="#fff" fill-opacity=".2" d="m32.759 34.286 3.748-2.176-3.748-1.674v3.85Z"/><path fill="#fff" fill-opacity=".602" d="m29.01 32.11 3.749 2.176v-3.85l-3.75 1.674Z"/></g><defs><clipPath id="a"><rect width="40" height="40" x=".51" fill="#fff" rx="20"/></clipPath><clipPath id="b"><rect width="16" height="16" x="24.51" y="24" fill="#fff" rx="8"/></clipPath></defs></svg>