<svg xmlns="http://www.w3.org/2000/svg" width="43" height="42" fill="none"><g clip-path="url(#a)"><path fill="#26A17B" d="M.176 0h40v40h-40z"/><path fill="#fff" fill-rule="evenodd" d="M22.579 21.729v-.003c-.138.01-.846.053-2.428.053-1.262 0-2.15-.038-2.463-.053v.004c-4.86-.214-8.488-1.06-8.488-2.072s3.628-1.858 8.488-2.075v3.305c.317.022 1.227.076 2.485.076 1.508 0 2.265-.063 2.406-.075v-3.304c4.85.216 8.469 1.063 8.469 2.073 0 1.012-3.62 1.856-8.47 2.07Zm0-4.488v-2.957h6.767v-4.51H10.92v4.51h6.768v2.956c-5.5.253-9.637 1.343-9.637 2.648 0 1.305 4.137 2.393 9.637 2.647v9.478h4.89v-9.48c5.492-.253 9.618-1.342 9.618-2.645 0-1.304-4.126-2.393-9.617-2.647" clip-rule="evenodd"/></g><rect width="20" height="20" x="22.176" y="22" fill="#fff" rx="10"/><g clip-path="url(#b)"><path fill="#EF0027" d="M24.176 24h16v16h-16z"/><path fill="#fff" d="m35.142 28.956-7.216-1.328 3.798 9.556 5.291-6.447-1.873-1.78Zm-.116.585 1.104 1.05-3.019.546 1.915-1.596Zm-2.57 1.487-3.183-2.64 5.201.958-2.019 1.682Zm-.227.467-.52 4.29-2.797-7.042 3.317 2.751Zm.48.227 3.343-.605-3.835 4.672.492-4.067Z"/></g><defs><clipPath id="a"><rect width="40" height="40" x=".176" fill="#fff" rx="20"/></clipPath><clipPath id="b"><rect width="16" height="16" x="24.176" y="24" fill="#fff" rx="8"/></clipPath></defs></svg>